/* XPM */
static char *db2118f54fd04a82c4cd39b07bc8049cTlicr6U0QMdOaV2j[] = {
/* columns rows colors chars-per-pixel */
"64 64 161 2 ",
"   c #030303",
".  c #0F0201",
"X  c #0F0F0F",
"o  c #120301",
"O  c #1C0703",
"+  c #161616",
"@  c #1A1A1B",
"#  c #2C0F05",
"$  c #272727",
"%  c #2D2D30",
"&  c #363636",
"*  c #393231",
"=  c #3A393B",
"-  c #5C250B",
";  c #652509",
":  c #712F0D",
">  c #7F310B",
",  c #7C411F",
"<  c #7B5139",
"1  c #413F43",
"2  c #454445",
"3  c #49474A",
"4  c #494949",
"5  c #514E4E",
"6  c #545454",
"7  c #5B5B5B",
"8  c #5F5D61",
"9  c #636363",
"0  c #666669",
"q  c #6C6C6D",
"w  c #706F71",
"e  c #737373",
"r  c #7C7B7C",
"t  c #8E3207",
"y  c #84340C",
"u  c #8E3309",
"i  c #8A390E",
"p  c #923609",
"a  c #943A0C",
"s  c #9B3E0D",
"d  c #8B3A10",
"f  c #9C410F",
"g  c #8B451D",
"h  c #9D4512",
"j  c #9F4813",
"k  c #9B491A",
"l  c #A5450F",
"z  c #A44611",
"x  c #A24813",
"c  c #AA4A11",
"v  c #B35316",
"b  c #BF601E",
"n  c #864721",
"m  c #9C5324",
"M  c #82573D",
"N  c #945130",
"B  c #9B5633",
"V  c #9E5935",
"C  c #A35D36",
"Z  c #A66036",
"A  c #A96438",
"S  c #C1621F",
"D  c #C56621",
"F  c #C76823",
"G  c #CA6C25",
"H  c #CD7027",
"J  c #CF7128",
"K  c #D2752A",
"L  c #C77532",
"P  c #886044",
"I  c #8F7663",
"U  c #DF8434",
"Y  c #DE893D",
"T  c #E18636",
"R  c #E38837",
"E  c #E58B3A",
"W  c #E98E3C",
"Q  c #EC923E",
"!  c #BB885C",
"~  c #B38962",
"^  c #C38956",
"/  c #CB925B",
"(  c #DD9453",
")  c #EE9641",
"_  c #E79749",
"`  c #F29943",
"'  c #EB9D53",
"]  c #C69463",
"[  c #C1976F",
"{  c #CF9D6D",
"}  c #D09E6E",
"|  c #C49A72",
" . c #C89E77",
".. c #D3A06F",
"X. c #CDA277",
"o. c #CCA27B",
"O. c #D3A271",
"+. c #DFA973",
"@. c #E3A56B",
"#. c #E3A86F",
"$. c #EBAA6A",
"%. c #F1AD6D",
"&. c #E2AA73",
"*. c #E0AA77",
"=. c #7F7D80",
"-. c #807F80",
";. c #838283",
":. c #888689",
">. c #8D8C8D",
",. c #9B948C",
"<. c #8F8E90",
"1. c #918F92",
"2. c #959595",
"3. c #999697",
"4. c #989799",
"5. c #9C9C9C",
"6. c #AD9B89",
"7. c #B8A99A",
"8. c #A09FA1",
"9. c #A4A4A4",
"0. c #ADAAA7",
"q. c #A7A5A8",
"w. c #A8A7A9",
"e. c #ABABAB",
"r. c #AFADB0",
"t. c #B0AFB1",
"y. c #B2B2B2",
"u. c #B3B1B4",
"i. c #B4B4B4",
"p. c gray71",
"a. c #B6B4B7",
"s. c #B6B6B7",
"d. c #B7B6B8",
"f. c #B8B7B9",
"g. c #BAB9BA",
"h. c #BBBBBD",
"j. c #BDBBBE",
"k. c #C7AB91",
"l. c #C8B2A3",
"z. c #DDBFA4",
"x. c #CDBDB2",
"c. c #F0C094",
"v. c #CDC5BE",
"b. c #D4C4BA",
"n. c #D9C9BE",
"m. c #F1D0B0",
"M. c #BFBEC0",
"N. c #C4C2C5",
"B. c #C8C6C9",
"V. c #CAC8CB",
"C. c #CECCCF",
"Z. c #CFCDD0",
"A. c #D0CFD1",
"S. c #D1D1D3",
"D. c #D3D2D4",
"F. c #DFDCD8",
"G. c #F7DAC0",
"H. c #EAE2DD",
"J. c #E5E4E5",
"K. c #E8E7E8",
"L. c #EAE9EA",
/* pixels */
"9.8.9.9.9.9.5.5.8.9.9.5.y.i.i.i.p.p.p.p.p.p.p.y.p.p.p.y.e.e.9.9.9.e.e.9.9.5.9.9.9.e.e.9.9.9.9.9.e.9.e.e.e.i.s.p.p.p.i.i.i.p.p.p.",
"9.q.w.q.5.5.5.5.5.5.9.5.y.i.i.i.s.y.p.p.y.y.p.y.p.p.p.y.e.e.e.e.y.e.e.9.8.9.e.9.y.e.e.y.e.e.9.9.9.e.e.y.e.i.p.p.p.i.i.i.i.i.i.i.",
"9.9.9.8.8.5.5.8.8.9.5.5.y.g.i.i.y.p.y.y.p.p.y.s.y.p.p.y.y.e.e.e.9.e.e.9.9.e.e.e.e.e.e.y.i.y.e.9.e.e.y.y.y.i.i.i.i.y.i.y.i.i.i.i.",
"9.w.9.9.9.9.<.8.5.9.5.5.y.i.i.i.p.9.y.p.p.y.y.y.y.p.y.5.e.9.9.9.e.9.9.9.5.9.e.e.e.e.e.y.i.y.9.y.e.e.y.y.y.p.i.i.i.i.9.y.i.i.i.i.",
"e.e.e.0.9.8.<.8.9.5.5.5.y.i.i.y.p.9.y.p.p.y.y.y.y.p.y.9.t.0.9.9.e.e.9.e.9.9.e.e.e.e.e.e.y.y.8.y.e.e.e.e.e.i.y.i.y.i.9.i.i.y.i.e.",
"e.e.e.e.e.0.9.8.5.9.e.9.e.i.y.i.p.y.y.y.p.y.y.y.y.y.i.y.y.8.5.8.9.9.9.9.e.e.y.e.y.y.y.y.y.y.y.y.e.y.y.y.e.i.i.i.i.y.y.y.y.y.i.p.",
"y.y.y.y.e.y.e.e.e.e.e.e.i.i.i.i.p.y.y.y.t.y.t.y.y.p.i.y.e.5.8.9.9.9.9.e.e.y.y.e.9.e.e.y.e.y.i.y.y.y.y.y.y.i.i.i.i.i.y.y.y.i.i.y.",
"e.e.e.e.e.e.e.0.5.9.9.9.y.i.i.i.p.y.y.y.p.y.e.p.s.y.i.y.y.9.0.8.5.9.9.9.e.y.i.e.e.e.y.y.y.y.y.y.i.i.y.i.y.i.y.i.i.i.y.y.y.y.i.e.",
"9.e.i.e.e.y.e.e.e.9.e.e.e.0 7 7 7 7 7 7 7 7 6 7 7 7 7 7 7 6 6 6 6 6 6 6 7 7 7 7 7 6 7 ;.-.-.-.r r r 9.i.y.p.y.p.y.i.y.i.i.y.y.e.",
"e.e.y.e.e.e.e.e.e.9.9.e.e   X + X X + X X X X X X X X X X X X + X X X X X X X X X X $ 4 4 2 2 2 1 2 e y.y.p.y.y.y.y.i.y.y.y.i.i.",
"y.e.y.e.e.e.t.e.9.9.9.e.r   & & & & & & & & & & & & & & & & & & & & & & & & & & & & & & & & & & & = e y.e.p.y.p.i.y.y.i.e.i.i.e.",
"y.y.y.y.e.e.e.e.9.e.e.e.;.  % & & & & & & & & & & & & & & & & & & & & & & & & & & & & & & & & & & = e p.e.y.y.p.y.y.y.y.i.e.y.e.",
"e.y.y.y.t.i.i.e.9.e.e.e.I   & & & & & & & & & & & & & & & & & & & & & & & & & & & & & & & & & & & & q i.e.y.y.e.e.y.y.i.p.i.y.y.",
"i.i.y.y.u.u.i.e.9.e.u.9.=.  & & & & & & & & & & & & & & & & & & & & & & & & & & & & & & & & & & & & 0 p.e.y.y.e.e.y.y.y.y.e.y.e.",
"y.i.y.i.e.e.e.9.9.e.e.e.=.  & & & & & & & & & & & & & & & & & & & & & & & & & & & & & & & & & & & & 0 i.y.e.y.e.e.y.e.y.y.y.e.e.",
"y.y.y.y.u.e.9.9.9.9.e.r.;.  % & & & = & & & & & & & & & & & & & & & & & & & & & & & & & & & & & & % 9 p.y.y.y.e.e.e.e.y.p.p.e.e.",
"y.y.y.e.y.e.:.e.9.e.9.9.r   % & & & & & & & & & & & & & & & & & & & & & & & & & & & & = & & & & & $ 8 i.y.y.y.e.9.w.>.e.y.y.y.y.",
"y.y.e.e.e.e.e.9.9.9.e.9.e   & & & & & & & & & & & & & & & = & & & & & & & & & & & & & & & & & & & $ 7 i.e.y.w.9.9.9.5.9.9.9.9.e.",
"e.y.y.e.y.y.e.e.e.e.e.9.-.  & & & & & & & & & & & & & & & & & & & & & & & & & & & & & & & & & & & @ 6 p.e.e.e.e.w.w.9.e.e.e.9.9.",
"y.y.y.y.e.y.y.y.e.y.y.9.;.  & & & & & & & & & & & & & & & & & & & & & & & & & & & & & & & & & & & @ 6 p.e.y.e.e.w.9.e.e.y.e.e.9.",
"e.9.9.9.e.9.e.9.e.e.9.8.e   & & & & & & & & & & & & & & & & & & & & = & & & = & & & & & & & & & & @ 4 w.8.8.5.9.9.5.e.9.e.9.e.9.",
"9.9.e.e.e.e.e.e.e.e.0.9.e   % & & & & & & & & & & & & & & & & & & & & & & & & & & & & & & & & & & + 4 w.5.5.5.5.5.9.9.e.9.9.9.9.",
"e.e.e.e.e.9.e.e.e.e.9.5.r   & & & & & & & & & & & & & & & & & & & & & & & & & & & & & & & & & & & + 4 w.5.5.5.5.5.9.e.9.e.9.9.9.",
"9.e.9.e.e.e.9.e.9.9.9.9.;.  & & & & & & & & & & & & & & & & & & & & & & & & & & & & & & & & & & & + 4 w.8.8.5.5.5.5.9.e.9.9.e.9.",
"9.9.e.e.9.9.e.e.9.e.9.5.e   & & & & & & & & & & & & & & & & & & & & & & & & & & & & & & & & & & & + 2 9.9.5.5.5.5.9.9.e.9.y.e.e.",
"e.9.9.e.e.9.>.9.5.9.9.5.e   & & & & & & & & & & & & & & & & & & & & & & & & & & & & & & & & & & & + 4 9.5.5.9.9.9.9.>.9.y.y.y.e.",
"e.e.e.e.e.e.2.9.5.5.5.5.-.  & & & & & & & & & & & & & & & & & & & & & & & & & & & & & & & & & & & + 2 5.5.5.5.9.9.e.5.e.y.y.e.e.",
"9.e.9.e.e.y.e.e.e.9.9.9.;.  % & & & & & & & & & & & & & & & & & & & & & & = & & & & & & & & & & & + 4 9.9.5.9.9.9.9.9.y.e.9.9.9.",
"9.9.9.e.9.e.9.e.e.9.5.9.e   & & & & & & & & & & & & & & & & & & & & & & & & & & & & & & & & & & & + 4 9.5.5.5.9.9.9.e.y.e.9.e.9.",
"9.e.9.e.9.9.9.0.e.9.9.5.e   $ $ $ $ $ $ $ $ $ $ $ $ $ $ $ $ $ $ $ $ $ $ $ $ $ $ $ $ $ $ $ $ $ $ $ + 2 9.9.5.5.5.9.e.e.e.e.e.e.e.",
"9.9.9.9.9.5.9.9.5.5.5.9.r                                                                           4 9.5.5.5.5.9.e.y.e.y.e.e.e.",
"9.9.9.9.5.5.5.9.9.9.5.5.e.;.>.>.2.<.2.2.5.5.8.9.w.w.e.e.y.y.y.e.y.s.s.s.s.p.p.g.s.s.s.s.s.g.g.h.h.s.e.5.5.9.5.9.9.y.e.y.e.y.y.e.",
"5.9.5.5.5.5.5.8.9.9.5.3.3.3.5.5.8.8.w.e.t.u.f.h.j.M.N.B.B.V.N.3 y.C.Z.Z.Z.C.C.C.C.C.C.Z.A.A.S.D.D.D.s.9.5.5.9.5.9.e.e.e.e.e.e.y.",
"8.8.5.5.5.2.5.5.9.5.5.5.5.3.5.5.8.9.9.e.t.t.u.f.j.M.N.N.B.V.N.-.y.C.Z.A.Z.C.C.C.C.Z.C.Z.A.A.A.D.D.D.s.8.9.5.5.9.5.9.9.0.y.e.e.e.",
"9.5.5.5.5.5.5.5.5.5.5.3.q.9.5.9.w.9.w.e.t.t.i.i.f.f.h.j.t.t.t.t.y.t.y.i.g.d.p.u.p.r.p.p.y.y.y.p.y.p.e.8.5.9.5.9.9.9.e.e.y.y.e.9.",
"5.8.5.5.5.5.2.5.5.8.5.5.9.8.8.9.9.8.w.u.e.t.y.y.e.e.u.i.r.t.t.e.e.e.w.w.e.w.q.9.e.9.9.9.8.5.5.5.5.8.5.5.5.9.5.8.9.5.e.e.e.9.e.9.",
"5.8.5.8.5.5.5.5.8.5.5.5.8.8.5.9.8.4.9.e.e.e.e.e.e.e.y.j.j.g.g.d.i.f.g.i.t.e.9.9.9.9.9.9.w.5.5.4.5.5.5.8.5.9.5.8.5.8.9.9.9.9.9.e.",
"9.9.5.9.5.5.8.5.5.9.5.5.8.5.5.5.5.4.9.t.y.y.y.y.y.e.y.1.;.r r r -.r r ;.i.q.9.8.5.9.9.8.8.9.5.5.5.5.5.8.2.8.5.8.8.9.9.9.9.9.9.9.",
"o.X.X.| | X.~ X.~ X.| | | | X.| | ~ [ X.X.o.o.o.o.k.S.A.q.4.2.<.<.<.4.h.H.7.{ { { O.O.O...O.] { { O.{ { ..O...{ { O.] O...{ O.O.",
"Q Q Q Q Q Q Q ` ] | X.~ [ [ _ Q ` ` ` ` ` ` ' $.%.$.&.&.&.+.+.#.*.*.+.+.+.&.$.$.@.` ) ) ) +.m.G.m.c.' Q Q Q Q ` Q ` Q ` Q ` ` Q ",
") ) ) Q Q Q _ 6.0.e.e.e.0.X.` ` ` ` ` ` ) @.H.K.J.K.J.L.J.K.J.K.J.H.J.L.L.J.K.L.L.b.Q Q ` #.k.v.J.L.F.#.` Q Q Q ` Q Q ` Q Q Q Q ",
") ) ` ` ` / ,.5.5.5.5.3./ Q Q Q W E W W Y l.x.b.x.x.n.b.n.V.n.n.C.n.b.n.x.b.x.x.x.x.! Q W W E Y ^ |  .( E E E R E E E E E U U U ",
"U G T H L e e e e r r I K K K K J J J K J J J J G G G G G F G G G G G G G G G G H H J G G G G D F F F b S S b b b b b b b b b b ",
"c v c v m 9 9 9 9 w e P v v c x x x x h x j j x h j j j l x x j j x z x j j j j x f j c h h h h f h c c c c l l j j x z f l f l ",
"c c l c g 7 7 9 q 9 9 M l x # o o o o o o o o o . o o o o o . . o o o o o o o o o o o o o o o o . o # a f s p f a a p p p p p t ",
"f f f f n 7 7 7 8 7 7 < f a O o . . . o . . . . . . . . . . . . . . . . . . . . . . . . . . o . . . O u p p t t t t t p t t t t ",
"l l c c g 6 & * * * 5 < l l - i d d i i i i i i d d i i i i , i i i i i i i y i i i y y y y y y > y ; a a p t t t t p t t t t t ",
"c c c c v n : : : : , k c c l f h h f f f h l h a f f f f f f f a a s a a a a a a i p a p i u i u u a p p a a a a p p p p p t t ",
"A A A A A A A A Z Z Z A Z Z Z Z Z Z A A Z Z Z Z Z P Z Z C V V Z Z V V Z Z C C C C V C V B B V V B B B B B V V V V B N N N N N N ",
"7.e.9.0.e.9.9.9.8.9.9.9.5.5.5.8.e.y.e.e.e.e.9.9.e.9.9.9.9.9.5.0.e.e.e.y.y.y.i.i.y.y.e.y.y.e.e.e.e.e.e.9.5.y.e.e.9.e.e.e.e.9.9.9.",
"9.0.9.9.9.9.9.9.5.5.8.9.9.5.8.9.e.e.y.e.e.e.e.9.e.e.9.9.9.5.9.9.e.y.y.y.y.i.y.y.y.e.y.p.y.y.y.y.y.e.q.9.9.e.9.9.0.9.9.9.e.9.8.e.",
"8.9.9.5.9.9.5.5.5.5.5.9.5.5.5.9.e.e.e.e.e.y.e.e.e.e.e.5.5.9.5.9.9.e.y.y.y.y.y.y.y.y.y.y.e.e.p.y.r.e.9.8.5.e.e.9.e.e.9.9.9.9.9.e.",
"9.5.5.9.8.5.5.5.5.2.5.5.5.5.9.9.e.e.e.e.e.y.e.e.y.e.9.9.9.5.5.9.9.5.e.e.e.p.y.p.p.y.p.e.y.e.y.e.9.9.9.5.5.e.e.0.9.e.9.9.9.9.e.y.",
"9.9.8.9.5.5.5.5.5.5.5.5.5.9.9.5.9.9.e.e.e.e.y.e.e.9.9.9.9.5.9.9.q.e.e.y.y.y.y.p.y.p.y.y.y.e.9.9.9.8.5.5.9.y.y.e.y.y.e.e.e.e.9.e.",
"9.0.8.5.5.5.5.5.5.5.5.5.9.5.5.9.9.e.e.e.e.e.e.9.9.e.9.9.5.5.9.9.e.e.e.y.y.y.y.e.y.y.e.e.e.e.e.e.e.9.9.9.5.e.y.y.e.e.9.9.9.9.9.y.",
"e.9.5.8.8.5.5.9.5.5.5.5.5.5.9.5.5.e.e.e.e.e.9.e.9.9.9.9.9.5.5.9.e.e.e.e.e.e.y.e.e.e.9.e.e.9.9.9.e.e.q.9.5.e.e.e.e.9.9.9.9.9.9.e.",
"y.e.9.e.9.9.5.5.5.5.5.5.9.5.9.5.5.9.e.e.9.9.e.9.9.9.9.9.5.5.5.9.5.e.e.e.e.e.e.e.9.e.9.e.9.9.9.9.e.e.9.9.9.y.9.e.9.e.9.9.9.9.9.y.",
"e.e.9.9.9.5.5.5.5.5.5.5.5.9.5.5.5.9.9.9.9.9.9.9.9.9.5.9.9.5.5.9.9.e.e.y.e.e.9.e.9.9.e.y.e.e.9.0.e.e.e.9.5.e.9.e.9.9.9.9.9.9.9.9.",
"e.5.9.9.5.5.2.5.5.5.5.9.5.5.5.5.9.9.9.9.9.9.9.9.e.9.9.5.5.5.5.5.e.e.e.e.e.e.5.9.9.9.e.p.y.y.y.y.e.e.e.9.5.9.9.9.9.9.9.9.8.9.9.9.",
"9.5.9.9.5.5.5.5.5.5.9.5.5.5.5.5.5.5.5.5.5.5.5.9.9.9.5.5.5.5.2.5.5.5.9.e.9.9.9.5.9.9.e.p.y.e.y.y.p.e.9.9.2.9.9.9.9.e.9.9.9.9.9.e.",
"5.9.9.e.9.5.-.5.2.5.5.5.2.5.5.2.5.;.2.5.5.5.5.5.5.5.5.=.5.5.2.5.9.9.5.5.>.2.5.9.9.9.e.y.y.y.2.e.e.e.9.9.2.5.5.5.8.9.=.5.8.5.5.9.",
"5.5.9.9.e.9.9.5.5.5.2.5.5.2.5.5.5.2.5.5.2.5.2.5.5.5.5.5.2.5.5.5.5.5.5.5.5.5.5.9.e.9.e.y.y.e.9.9.5.e.9.9.2.5.5.2.5.5.5.8.8.5.5.9.",
"2.5.5.9.9.5.5.5.2.5.5.2.2.2.2.5.5.5.5.2.5.2.2.5.5.2.5.2.5.2.2.5.5.5.5.5.5.5.5.9.9.e.e.y.e.9.9.5.9.9.9.9.2.5.2.5.5.5.2.5.5.5.5.5.",
"5.5.2.5.2.5.2.5.5.2.5.2.5.5.2.5.5.2.5.5.2.5.5.2.5.5.2.5.2.5.5.2.5.5.2.5.2.5.5.5.2.5.9.9.9.9.9.9.5.9.9.5.5.2.5.2.5.2.5.5.2.5.5.2."
};
