/* XPM */
static char *e59ce9aeaff24c77be6bb91ed85f448869s7I88TrzkiRCXg[] = {
/* columns rows colors chars-per-pixel */
"64 64 216 2 ",
"   c gray50",
".  c #9F3D3D",
"X  c #A23D3D",
"o  c #AF3A3A",
"O  c #B23C3C",
"+  c #CD302B",
"@  c #CF3737",
"#  c #C93A36",
"$  c #D03636",
"%  c #DF3535",
"&  c #E2322C",
"*  c #E83936",
"=  c #C5433C",
"-  c #D9443C",
";  c #A54242",
":  c #AA4444",
">  c #B94D4D",
",  c #AC5A5A",
"<  c #B75656",
"1  c #BE5D5D",
"2  c #A9645B",
"3  c #BA655B",
"4  c #BC645C",
"5  c #B36C63",
"6  c #BC6C65",
"7  c #AC716C",
"8  c #BD746C",
"9  c #AC7474",
"0  c #AE7D7D",
"q  c #BD7777",
"w  c #BA7C73",
"e  c #B47D7D",
"r  c #C64A49",
"t  c #D54E47",
"y  c #CA544E",
"u  c #D5534C",
"i  c #C35953",
"p  c #CA5D5D",
"a  c #D95956",
"s  c #E84846",
"d  c #EB4A4A",
"f  c #F04B4B",
"g  c #E3554C",
"h  c #F2564A",
"j  c #EA5957",
"k  c #F35C53",
"l  c #CF665C",
"z  c #D7675A",
"x  c #EA665A",
"c  c #EC645D",
"v  c #F2675A",
"b  c #F3655E",
"n  c #CD6663",
"m  c #DC6B65",
"M  c #C27669",
"N  c #C2736C",
"B  c #CE756F",
"V  c #D4736D",
"C  c #DC726B",
"Z  c #DF7A6F",
"A  c #C67975",
"S  c #C47E75",
"D  c #D17C74",
"F  c #DE7972",
"G  c #DC7A77",
"H  c #D37E7B",
"J  c #E06D67",
"K  c #EB6C64",
"L  c #EB6F6F",
"P  c #F26661",
"I  c #F16961",
"U  c #F46F6C",
"Y  c #E2746B",
"T  c #E6776B",
"R  c #EC7A6C",
"E  c #F3766D",
"W  c #EB7672",
"Q  c #E57875",
"!  c #EA7E74",
"~  c #E17A7A",
"^  c #F67873",
"/  c #F27B74",
"(  c #F17C79",
")  c #AC847D",
"_  c #AF897F",
"`  c #B7867C",
"'  c #C58378",
"]  c #CA8379",
"[  c #D58676",
"{  c #D5807D",
"}  c #CA927F",
"|  c #EB826F",
" . c #EC8375",
".. c #E98775",
"X. c #E6857A",
"o. c #EB847B",
"O. c #E58A7D",
"+. c #E98A7C",
"@. c #F3847C",
"#. c #EA917E",
"$. c #848484",
"%. c #8D8D8D",
"&. c #9D8F8F",
"*. c #949494",
"=. c #9E9493",
"-. c #9D9997",
";. c #9C9C9C",
":. c #A68585",
">. c #AA8583",
",. c #A38986",
"<. c #AD8A82",
"1. c #A58C8B",
"2. c #AC8D8D",
"3. c #B48382",
"4. c #BB8383",
"5. c #B58D86",
"6. c #BC8D8D",
"7. c #A9918B",
"8. c #A8958A",
"9. c #B4958B",
"0. c #B9958B",
"q. c #A19592",
"w. c #AD9493",
"e. c #A49A95",
"r. c #AC9C94",
"t. c #A29D9C",
"y. c #AB9D9C",
"u. c #B39494",
"i. c #BB9695",
"p. c #B29C94",
"a. c #BC9D94",
"s. c #B49C9C",
"d. c #BA9E9E",
"f. c #A4A09E",
"g. c #ABA29C",
"h. c #BEA396",
"j. c #B2A49C",
"k. c #BBA69C",
"l. c #A19FA0",
"z. c #A4A4A4",
"x. c #AAA4A4",
"c. c #ACA9A6",
"v. c #ABABAB",
"b. c #B3A6A4",
"n. c #BCA0A0",
"m. c #B4ABA5",
"M. c #B9ADA5",
"N. c #B3ADAC",
"B. c #B9AAAA",
"V. c #BAB0A7",
"C. c #B5B1AE",
"Z. c #B9B1A9",
"A. c #B3B3B3",
"S. c #C58585",
"D. c #CB8B80",
"F. c #C18F8F",
"G. c #DE8D87",
"H. c #C79689",
"J. c #DB958A",
"K. c #C19191",
"L. c #C89893",
"P. c #D19595",
"I. c #DD9292",
"U. c #D59999",
"Y. c #E58683",
"T. c #E88982",
"R. c #E48D8A",
"E. c #F18782",
"W. c #F18883",
"Q. c #FA8E89",
"!. c #EA9584",
"~. c #E89984",
"^. c #E7948A",
"/. c #EB9489",
"(. c #E59B8C",
"). c #F8928B",
"_. c #E59595",
"`. c #E39C9C",
"'. c #F59C95",
"]. c #F39F99",
"[. c #C1A295",
"{. c #C1A499",
"}. c #E6A18C",
"|. c #E5A496",
" X c #E6AB90",
".X c #E4A69A",
"XX c #E4AA9C",
"oX c #FAA19C",
"OX c #E4B59B",
"+X c #D6ADAA",
"@X c #DFAFAF",
"#X c #DFB0B0",
"$X c #DEBCBC",
"%X c #E2A4A4",
"&X c #E2ACA3",
"*X c #E1ABAB",
"=X c #F9A7A1",
"-X c #F2ABA5",
";X c #F9A9A3",
":X c #E2B8A6",
">X c #E0B2B2",
",X c #E0BFB2",
"<X c #DFC3B6",
"1X c #DFC9B6",
"2X c #DEC6BB",
"3X c #DECABD",
"4X c #DED1BF",
"5X c #E0C2B2",
"6X c #DDC4C4",
"7X c #DDCDC2",
"8X c #DBCCCC",
"9X c #DDD2C5",
"0X c #DCD5CC",
"qX c #DAD5D3",
"wX c #DAD8D6",
"eX c #D9D9D9",
/* pixels */
"z.z.z.z.z.z.;.;.l.z.z.;.A.A.A.A.A.A.A.A.A.A.A.A.8XA.A.A.v.v.z.z.z.z.v.z.l.l.z.z.v.v.v.v.z.z.z.z.z.z.v.v.A.A.A.A.A.A.A.A.A.A.A.A.",
"z.z.v.z.;.;.;.;.;.;.;.l.A.A.A.A.A.A.A.A.A.A.A.A.A.A.A.A.v.v.v.v.A.A.v.z.l.z.z.z.v.v.v.v.v.v.v.z.z.v.v.A.A.A.A.A.A.A.A.A.A.A.A.A.",
"z.z.z.;.l.;.l.l.z.z.;.;.A.A.A.A.A.A.A.A.A.A.A.A.A.A.A.A.A.v.v.z.z.z.v.z.z.v.v.v.v.v.v.A.A.A.v.z.v.v.A.A.A.A.A.A.A.A.A.A.A.A.A.qX",
"z.v.z.z.z.z.%.l.;.;.;.l.A.A.A.A.A.z.A.A.A.A.A.A.A.A.A.z.A.z.z.z.z.v.v.z.z.z.v.v.v.v.v.A.A.A.z.A.v.A.v.A.A.A.A.A.A.A.A.A.A.A.A.A.",
"v.c.c.v.z.z.%.z.;.z.;.;.A.A.A.A.A.v.A.A.A.A.A.A.A.A.A.v.A.v.z.z.v.v.z.v.z.z.A.v.v.v.v.v.A.A.;.A.v.v.v.v.v.A.A.A.A.A.z.A.A.A.A.A.",
"v.v.A.v.v.z.z.l.z.z.z.z.A.A.A.A.A.A.A.A.A.A.A.A.A.A.A.A.A.z.;.l.z.v.z.z.z.v.v.v.A.v.A.A.A.A.A.A.A.v.v.A.v.A.A.A.A.A.A.A.A.A.A.A.",
"A.A.A.v.v.A.v.v.v.v.A.v.A.A.A.A.A.A.A.A.A.A.A.A.A.A.A.A.v.;.z.z.;.z.z.z.v.A.A.v.v.v.v.v.v.A.A.A.A.A.A.A.A.A.A.A.A.A.A.A.A.A.A.A.",
"v.v.v.v.v.v.v.v.z.;.v.A.A.A.A.A.A.A.v.A.A.A.v.A.A.A.A.A.A.z.z.z.z.z.z.v.v.A.A.v.v.v.A.A.A.A.A.A.A.A.A.A.A.A.A.A.A.A.A.A.A.A.A.A.",
"z.v.A.v.v.A.v.v.z.z.v.v.A.A.A.A.A.A.A.A.A.A.v.A.A.A.A.A.A.v.v.z.l.;.z.v.A.A.A.A.A.v.A.A.A.A.A.A.A.A.A.A.A.A.A.A.A.A.A.A.A.A.A.A.",
"v.v.A.v.v.v.v.v.v.z.z.v.A.A.A.A.A.A.A.A.A.A.A.A.A.A.A.A.v.z.v.v.z.z.z.v.A.A.A.A.A.A.A.A.A.A.A.A.A.A.A.A.A.A.A.A.A.A.A.A.A.A.A.A.",
"A.v.A.v.v.v.A.v.z.z.z.z.A.A.A.v.A.A.A.v.A.A.v.v.A.A.A.A.v.z.v.v.z.;.;.v.A.A.A.A.A.v.v.A.A.A.A.A.A.A.A.A.A.A.A.A.A.A.A.A.v.A.A.v.",
"A.A.A.A.v.v.v.v.v.z.A.A.v.A.A.A.A.A.A.A.A.A.v.v.v.v.A.v.z.z.z.l.z.z.l.z.C.C.C.C.C.C.C.A.C.C.C.C.+XA.A.A.v.A.C.A.A.A.A.A.A.v.A.v.",
"v.A.A.A.A.A.A.v.z.v.v.v.A.A.A.v.A.A.A.A.A.A.A.v.A.A.v.z.z.z.v.l.l.;.f.g.m.V.V.V.V.V.V.V.V.M.V.V.A.Z.Z.Z.g.C.C.v.v.A.A.A.A.A.A.A.",
"A.A.A.A.A.A.A.v.z.v.v.v.z.v.A.v.A.A.A.A.v.A.v.v.v.x.B.x.x.y.b.b.z.z.g.p.h.h.[.h.h.[.h.h.[.h.{.k.k.h.{.h.j.m.v.C.v.A.A.A.A.A.v.v.",
"A.A.A.A.v.v.v.z.z.v.v.v.v.v.v.v.v.v.v.A.A.v.v.s.F.4.S.q q q A 4.2.l.u.I.O.O.O.X.....(.J...X...O.G.O.#.O.J.a.v.v.v.v.A.A.A.A.v.v.",
"A.A.A.v.A.v.z.z.z.z.z.v.v.A.A.v.v.v.A.A.A.v.s.U.].E.( Y.E.( W '.+Xw.S.Y # = = = + - n ~.+ = = = = = = # x 0.A.v.v.v.v.A.A.A.v.v.",
"A.A.A.v.v.v.$.z.v.z.z.z.v.A.v.z.v.$.v.A.A.s.U.W.@ > r r r $ % H 2 9.S / |  X}.| k R z O.h (..XXXXX.X|.R b ] M.c.x.c.%.v.A.A.v.A.",
"A.A.v.A.v.A.v.v.z.z.v.z.v.v.v.z.z.z.z.x.w.U.W.@ ~ `.%X_.L P G > e 7.M / #.OX XR x z [ O.v :X5X2X3X1X<XT.b S j.x.z.z.l.z.z.z.c.v.",
"v.A.v.v.v.A.v.v.v.v.v.v.v.v.v.v.z.z.c.s.U.W.@ ~ @X$X@XY.^ ~ > e 2.r.M  .}.OX..C l } H.O.K <X9XqXqX0X4X^.K S j.x.c.z.z.v.v.v.z.z.",
"A.A.A.A.A.A.A.A.v.v.A.z.v.v.v.z.z.v.s.U.W.@ ~ >X6X>X_.( H > 3.2.w.r.M / ..| ^.l H.h.H.T.x 3X0XwXwX0X9X^.b ] m.c.z.c.v.v.v.v.v.z.",
"v.z.z.z.z.z.v.z.v.v.z.l.l.z.x.z.z.s.U.W.@ ~ >X6X$X_.( H < 3.u.t.g.r.A E k W.i ` p.r.` #.T 2X0XwXwXqX9X^.K N e.g.l.z.z.v.v.z.z.z.",
"z.z.v.v.v.v.v.v.v.A.z.z.v.v.A.v.d.U.E.$ ~ >X6X$X_.( { 1 K.n.B.$XC.M.] U b l ' k.j.j.0.#.o.3X0XwXeX0X7X^.P 8 e.t.l.l.v.z.v.z.z.v.",
"v.v.v.v.v.z.v.v.v.z.z.l.z.v.N.s.P.E.@ ~ @X6X$X_.( { 1 K.n.B.A.A.C.Z.D.).g S a.j.j.j.0. . .2X0XwXeX0X9X^.c 8 q.-.;.l.v.z.z.z.z.z.",
"z.v.z.v.v.v.v.z.z.z.z.l.v.v.d.U.W.$ ~ @X6X$X_.( { 1 K.n.B.A.A.A.A.C.L.n ] a.m.m.m.g.} |  .3XqXwXqX9X1X ./ w q.-.;.;.v.z.v.z.v.z.",
"z.z.v.v.v.z.v.v.z.z.z.l.x.s.U.E.$ ~ >X6X$X_.( { 1 K.n.B.A.A.A.A.C.C.B.i.h.b.m.m.M.[.[ a (.7X0XqXwX5X~.| y ) -.;.;.z.z.v.z.A.v.v.",
"v.z.z.v.v.z.%.z.;.z.z.l.s.U.E.$ ~ #X6X>X_.( { 1 K.n.B.t.A.A.A.A.A.A.C.Z.b.z.m.M.[.{ j Q :X9X0X0X9X|.@.r 8 7.g.z.l.z.*.z.v.A.A.v.",
"v.v.v.v.v.v.*.z.l.;.;.1.U.W.$ G >X6X$X_.( { 1 K.d.B.A.x.A.A.A.A.A.A.A.A.c.x.m.p.[ g z &X7X0X0X9XOX@.n 6 _ q.;.z.z.v.;.v.A.v.v.v.",
"z.v.z.v.v.v.v.v.z.z.w.P.E.$ ~ @X6X$X_.( { 1 K.n.B.A.A.A.A.A.A.A.C.A.A.A.C.M.h.D.g a &X3X0X0X9X&X@.G l 5.e.t.l.c.z.z.z.v.v.z.v.z.",
"z.z.z.v.z.v.v.v.v.u.P.W.$ ~ #X6X$X_.( { 1 6.n.B.B.A.A.A.A.A.A.A.A.A.C.C.Z.{.P.Y a &X5X0X0X9X&X@.V 6 3.g.;.-.;.l.z.v.v.A.v.v.z.v.",
"z.v.z.v.z.z.z.z.s.P.W.@ ~ #X6X$X_.( H 1 F.d.B.A.A.A.A.A.A.A.A.A.A.C.C.M.k.H.X.t &X5XqX0X9X:X .z 3 5.8.g.f.;.;.f.z.v.v.v.v.v.v.z.",
"z.z.z.z.;.;.;.t.P.E.@ ~ #X6X$X_.( { 1 F.d.B.A.A.A.A.A.A.A.A.A.N.N.A.m.M.} ^.t |.5XqX0X0X5X .Y 4 5.r.f.f.-.f.;.z.z.v.v.v.A.v.v.v.",
"z.z.z.z.z.;.;.L.E.@ ~ #X6X$X_.^ { < 4.i.n.B.B.A.A.B.A.A.B.A.B.A.N.M.k.} ! t (.$X0X0X0X5XT./.i ` p.g.g.e.-.;.;.z.z.v.v.A.A.v.A.v.",
"l.z.l.;.;.&.P.E.@ ~ #X6X$X_.L ~ @ n A H S.S.S.S.S.S.S.S.S.S.S.S.S.K.H.T @ (.,X9XqX0X9X|./.y ` 9.g.j.r.5.0.8.f.z.z.z.v.v.v.A.v.v.",
"l.l.;.l.;.:.-X% L @X6X8X>XL j ( E.( Y.E.E.W.W.E.W.W.W.E.E.E.E.E./ .X[ s X.,X7XqXwX0X7X .m w 9.g.g.j.5.] T.` e.f.f.z.z.v.v.v.v.A.",
"l.;.;.;.=.0 ].j `.6XqXeX$X~ u d j a p p p p p p p p p p p p p y & O.C b }.9XqXwXqX0X3XT F ` r.g.r.0.' s x w e.;.z.z.v.v.v.v.v.z.",
";.l.;.;.;.3.oXj *X8XeXeX8X$X@X%X%X@X@X#X>X>X#X@X>X>X>X@X@X>X*XR.s o.C b .X9XqXwXwX0X<XK F _ q.8._ ] g & x w r.f.l.l.c.c.v.z.v.v.",
"l.l.;.l.;.e ].j *XeXeXeXeX8X6X$X6X6X6X6X6X6X6X6X6X6X6X6X$X6X$X`.s +.Y b XX9XqXwXwX0X1XY | _ 8._ } K - x K ' f.e.l.;.z.z.v.z.z.v.",
"z.z.l.l.=.3.].j %X6X8X8X8X6X6X6X6X6X6X6X8X6X6X6X6X8X8XqXqX8X8X%Xs o.m b .X9X0XqX0X0X1XK [ _ _ ' ..- #.| x ` e.-.;.z.z.z.z.z.z.z.",
"v.z.;.;.;.3.].f ~ _._._._.`._._._.`._._._._._._._.*X8XeXeXeX8X*Xf  .J I  X4X9X0X4X4X1Xx Y ` 2 T - }.OX..x w e.-.z.z.$.l.;.z.z.z.",
"z.;.;.;.=.0 -XQ.oX=X=X-X;X;X;X;X;X;X;X;X;X;X;X;X;XE.>XeXeXeXeX*Xf +.m b }.4X5X4X4X4XOXx | l T # #.OXOX..x 8 q.-.;.;.;.;.;.;.l.l.",
"l.;.;.;.*.:., o O ; . . ; ; ; : . X X : : : : O n L %XeXeXeXeX%Xs o.m v R /./.(.!./.+.h x X.% x ..#.!.b v 7 *.;.;.z.z.;.;.;.;.l.",
"l.;.;.;.;.*.:.9 q 9 9 9 e 4.4.4.9 9 e 4.4.4.S.q Y.P `.8XeXeX8X*Xs o.n Y C D B B V B V J Z T K C V B V V V ) q.;.z.;.z.;.;.;.;.;.",
"v.z.l.l.;.=.&.:.:.:.:.:.2.2.6.2.2.:.2.i.u.u.i.S.Y.P `.8XeXeXeX*Xd O.N N 8 5 5 5 5 5 3 3 6 l 4 3 3 5 5 2 7 ,.;.;.;.z.z.z.l.z.l.l.",
"l.l.l.l.;.;.=.=.=.=.&.&.&.=.&.&.&.=.y.y.y.y.y.3.I.P %X8XeXeX8X*Xd Y.q 5.<.<.<.>.<.<.<.<.<.) ) ) ) _ _ _ ,.e.l.;.z.;.z.;.z.l.z.l.",
"v.z.z.l.l.l.z.v.z.v.x.l.;.;.*.;.l.z.z.z.v.A.z.6.I.P `.8XeXeXqX@Xd G.3.y.e.t.t.y.g.x.z.x.m.x.t.t.;.-.e.-.;.v.z.z.v.z.z.z.z.v.v.v.",
"l.l.z.z.z.z.v.v.z.l.z.;.*.l.z.z.z.z.z.v.A.A.v.i._.P `.8XeXeXqX*Xd R.4.z.l.l.z.v.c.v.z.c.C.v.c.z.c.z.f.;.;.z.z.z.v.v.z.v.v.z.z.z.",
"l.v.v.v.v.v.v.A.v.z.v.l.;.l.z.z.z.z.z.A.v.A.v.u.I.k _.$X8X8X6X`.s R.4.c.x.c.z.v.c.z.z.v.v.v.v.c.v.v.c.z.;.v.z.z.z.v.z.z.z.z.z.z.",
"z.v.v.z.z.l.;.v.v.v.v.v.;.l.z.x.z.l.x.A.v.x.z.u.I.j L _._._._.( * R.4.m.z.z.v.v.c.v.z.v.z.z.;.v.v.v.z.z.;.v.v.v.z.v.;.z.z.;.;.z.",
"z.v.v.z.z.v.%.z.z.z.v.v.;.;.l.z.v.*.v.v.v.z.z.s.U.).oX;X=X;X;X].Q.`.w.v.z.z.A.A.v.A.v.v.z.z.%.z.c.v.z.z.;.v.A.A.v.v.*.z.z.;.;.z.",
"v.v.z.z.v.z.v.z.;.z.z.z.;.;.;.l.z.A.v.v.v.v.z.t.6 o O X . . . o O , u.A.A.A.A.A.A.v.A.A.A.v.v.v.v.v.v.z.z.A.v.v.v.v.z.v.v.z.l.v.",
"z.z.z.z.z.z.z.z.l.;.l.z.;.;.z.l.v.v.v.v.v.v.v.z.u.3.e e 0 0 0 e e 6.v.A.A.A.A.A.A.A.A.A.A.A.A.A.A.v.z.z.;.v.z.z.z.v.l.z.v.z.l.v.",
"z.z.z.l.z.z.;.;.;.;.;.z.;.;.z.z.v.v.A.A.A.v.v.z.n.s.u.2.w.2.2.2.u.s.v.A.A.A.A.A.A.v.A.A.A.v.A.A.v.v.z.l.;.v.v.z.v.v.z.z.z.z.z.v.",
"z.l.l.l.z.;.l.;.*.;.;.z.z.z.;.z.v.v.v.v.v.A.v.v.v.x.y.l.y.q.e.l.x.t.v.v.v.A.A.A.A.A.A.A.A.v.v.v.z.z.z.;.;.v.v.v.z.A.z.v.v.z.v.v.",
"z.l.l.z.;.;.;.;.;.*.;.;.;.;.z.l.z.z.v.v.v.v.v.v.c.c.z.z.l.l.l.z.z.x.v.v.A.A.A.A.A.A.v.A.A.v.z.z.z.z.;.;.l.A.A.v.v.v.v.z.z.v.v.v.",
"z.z.l.;.l.;.;.;.;.;.;.;.l.;.;.l.z.v.v.v.A.v.z.v.z.z.z.z.l.;.l.z.v.v.v.A.A.A.A.A.A.A.v.A.A.v.A.v.v.z.z.z.;.v.A.v.v.v.z.z.z.z.z.v.",
"v.z.l.l.l.;.l.;.;.;.;.;.;.l.l.l.;.v.v.v.v.z.v.z.z.z.z.z.l.l.;.z.v.v.v.v.v.v.v.v.z.v.v.z.z.z.z.z.v.v.v.z.l.v.v.v.v.v.z.z.z.z.z.A.",
"v.v.v.v.v.z.;.;.z.;.;.;.z.z.;.z.;.z.z.v.z.z.v.z.z.z.z.z.;.;.;.z.z.v.z.v.v.v.v.v.z.v.z.v.z.z.z.z.z.v.z.z.z.A.v.z.z.z.z.z.z.z.z.A.",
"v.v.z.z.z.;.;.;.;.;.;.z.;.;.;.;.z.;.z.z.v.z.z.v.z.z.;.z.z.;.;.z.z.v.v.A.A.v.z.v.z.v.v.A.v.v.z.z.v.v.v.z.;.v.z.v.z.z.z.z.z.z.z.z.",
"v.z.z.z.;.*.*.;.;.;.z.;.;.;.;.;.z.z.z.z.z.z.z.z.v.z.z.;.;.;.*.l.c.z.v.v.v.v.z.l.;.z.A.A.A.A.A.A.A.v.v.z.;.z.z.z.v.z.z.z.z.z.z.z.",
"z.;.z.z.;.;.;.;.*.;.z.;.*.;.;.;.;.;.;.;.;.;.;.;.z.z.;.;.;.;.;.l.z.l.z.c.z.z.l.l.z.;.v.A.A.v.A.A.A.v.v.;.;.;.z.z.z.z.z.z.z.;.z.v.",
";.;.z.v.z.;.  ;.;.;.;.;.;.;.*.;.;.$.*.;.;.;.;.;.;.;.;.  *.;.;.;.l.z.;.z.%.%.l.z.z.v.v.A.A.v.*.A.v.v.z.;.;.;.;.;.;.z.$.;.z.;.;.z.",
";.;.;.v.v.z.z.;.*.*.;.;.*.;.*.;.;.;.;.;.*.;.*.;.;.;.;.;.;.;.*.;.l.;.;.;.;.l.l.z.z.z.v.A.A.v.v.z.;.v.v.z.*.;.*.;.;.;.;.;.;.;.;.z.",
"*.;.;.z.z.;.;.;.;.*.;.*.*.*.;.;.;.;.;.;.;.*.;.;.;.;.;.*.;.*.*.;.*.;.;.;.;.;.;.z.z.v.v.A.v.;.z.;.z.v.v.;.;.*.;.*.;.;.*.z.;.;.;.;.",
";.;.*.;.;.*.;.*.;.;.;.*.;.;.;.*.*.;.*.*.;.;.*.;.*.;.*.;.;.*.;.;.*.;.*.;.*.;.*.;.;.;.z.z.z.z.z.;.;.;.z.;.*.;.*.;.;.*.;.;.;.*.;.*."
};
