/* XPM */
static char *_8c0bbf23912476cff13a8b70674f2f7yLjf135Bnb91lE5G[] = {
/* columns rows colors chars-per-pixel */
"64 64 209 2 ",
"   c gray50",
".  c #3D5C9F",
"X  c #3D5DA2",
"o  c #3A5CAF",
"O  c #3E63B1",
"+  c #4466AA",
"@  c #5D77AB",
"#  c #5070B4",
"$  c #577AB8",
"%  c #5B7DBB",
"&  c #2D6ACF",
"*  c #3B6DC5",
"=  c #366DCE",
"-  c #386DC9",
";  c #366ED0",
":  c #3A77DA",
">  c #2F72E1",
",  c #4A79C6",
"<  c #537AC3",
"1  c #467CD6",
"2  c #5E81BE",
"3  c #748DAC",
"4  c #7A8DAD",
"5  c #7E92AD",
"6  c #6383B3",
"7  c #6D8AB5",
"8  c #6285BE",
"9  c #6C8CBD",
"0  c #738EBA",
"q  c #7D94B3",
"w  c #7E98B6",
"e  c #7791B8",
"r  c #7694BD",
"t  c #7E99BD",
"y  c #3A8CEF",
"u  c #5D86CA",
"i  c #5D89CC",
"p  c #4C81D3",
"a  c #5788D7",
"s  c #5996DA",
"d  c #6D8FC1",
"f  c #628ACA",
"g  c #6A92C5",
"h  c #6F99CE",
"j  c #7493C2",
"k  c #7499C5",
"l  c #7899C7",
"z  c #799CCA",
"x  c #658BD2",
"c  c #6D99D4",
"v  c #6496DB",
"b  c #6996DB",
"n  c #6A99DC",
"m  c #7598D6",
"M  c #7C9CD4",
"N  c #7CA2CB",
"B  c #79A2D7",
"V  c #71A4DF",
"C  c #4788E5",
"Z  c #5088E1",
"A  c #4E92E3",
"S  c #4691EC",
"D  c #4A92EA",
"F  c #5799E9",
"G  c #5C9DEC",
"H  c #4A99F1",
"J  c #539AF4",
"K  c #5D9DF1",
"L  c #6596E7",
"P  c #6B9DE2",
"I  c #709BEC",
"U  c #609FF0",
"Y  c #5CA2ED",
"T  c #5EA4F3",
"R  c #54A8F4",
"E  c #5DAAF2",
"W  c #6BABE3",
"Q  c #63A4EB",
"!  c #6BA6E8",
"~  c #7CA6E5",
"^  c #76AAE7",
"/  c #7AAAE1",
"(  c #7CA6E9",
")  c #6EB3EB",
"_  c #76B2E6",
"`  c #7DBAE5",
"'  c #74B3EB",
"]  c #7AB7E8",
"[  c #7CB5EB",
"{  c #76BBEC",
"}  c #61A4F0",
"|  c #6EACF5",
" . c #73AEF1",
".. c #74ADF8",
"X. c #67B5F4",
"o. c #77B4F5",
"O. c #7CB4F3",
"+. c #75BAF2",
"@. c #79BCF1",
"#. c #76C4F4",
"$. c #848484",
"%. c #8D8D8D",
"&. c #8F959D",
"*. c #949494",
"=. c #91969F",
"-. c #95999D",
";. c #9C9C9C",
":. c #8594A6",
">. c #8C96A4",
",. c #8293AC",
"<. c #8B96A9",
"1. c #8B97AE",
"2. c #8A99A8",
"3. c #8D9CAC",
"4. c #9297A1",
"5. c #949AA3",
"6. c #9C9EA3",
"7. c #939DAC",
"8. c #9A9FAA",
"9. c #8297B3",
"0. c #859BB4",
"q. c #8C9BB4",
"w. c #839DBA",
"e. c #8D9EBB",
"r. c #A09FA1",
"t. c #8EA0AF",
"y. c #9EA1A4",
"u. c #97A0AE",
"i. c #9DA3AB",
"p. c #85A1BF",
"a. c #8CA3BD",
"s. c #94A3B3",
"d. c #9CA4B3",
"f. c #96A8B7",
"g. c #9EA9B5",
"h. c #95A5BD",
"j. c #97A9BA",
"k. c #9DACBD",
"l. c #A4A4A4",
"z. c #A3A5A9",
"x. c #A6A9AC",
"c. c #ABABAB",
"v. c #A1A7B3",
"b. c #A5ABB4",
"n. c #ABAEB2",
"m. c #A4ADBA",
"M. c #A9AEB9",
"N. c #AEB1B5",
"B. c #A1B0BC",
"V. c #AAB2B9",
"C. c #B3B3B3",
"Z. c #809DC3",
"A. c #809FCA",
"S. c #86A3C6",
"D. c #8DA6C4",
"F. c #82A1CB",
"G. c #94A6C1",
"H. c #92AAC1",
"J. c #99A8C1",
"K. c #94B2CE",
"L. c #85ABD8",
"P. c #8AB7DD",
"I. c #95B4D1",
"U. c #99B7D4",
"Y. c #99B9D5",
"T. c #92B6DD",
"R. c #9BBDD8",
"E. c #AABAD6",
"W. c #83ABE4",
"Q. c #88AEE4",
"!. c #87B6E5",
"~. c #8BBCE7",
"^. c #81B5EA",
"/. c #84BAEA",
"(. c #89BCEA",
"). c #94B2E1",
"_. c #92BDE6",
"`. c #99BCE3",
"'. c #82B4F1",
"]. c #82B9F0",
"[. c #AFCEDF",
"{. c #B6C7DF",
"}. c #B2CDDF",
"|. c #BCCDDE",
" X c #B1D0DF",
".X c #BCD1DE",
"XX c #8DC0E5",
"oX c #86C0EB",
"OX c #89C1ED",
"+X c #95C2E5",
"@X c #9CC4E4",
"#X c #8AC3F4",
"$X c #95C4F5",
"%X c #99C5F3",
"&X c #9CD1FA",
"*X c #A3C5E2",
"=X c #A9C5E1",
"-X c #A4CAE1",
";X c #ABCBE1",
":X c #B2CDE0",
">X c #B0D0E0",
",X c #A5CBF2",
"<X c #A3D3F9",
"1X c #C3CFDD",
"2X c #C4D3DD",
"3X c #CCD4DC",
"4X c #D3D6DA",
"5X c #D4D8DA",
"6X c #D9D9D9",
/* pixels */
"l.l.l.l.l.l.;.;.r.l.l.;.C.C.C.C.C.C.C.C.C.C.C.C.C.C.C.C.c.c.l.l.l.c.c.l.r.;.l.l.c.c.c.l.l.c.l.l.c.c.c.c.C.C.C.C.C.C.C.C.C.C.C.3X",
"l.l.c.l.;.;.r.;.;.;.;.r.C.C.C.C.C.C.C.C.C.C.3XC.C.C.C.C.c.c.c.c.C.c.c.l.l.l.c.l.c.c.c.c.c.c.l.l.l.l.c.C.C.C.C.C.C.C.C.C.C.C.C.C.",
"l.l.l.;.r.;.;.l.r.l.;.;.C.C.C.C.C.C.C.C.C.C.C.C.C.C.C.C.C.c.c.c.l.c.c.l.l.l.c.c.c.c.c.C.C.C.c.c.c.c.C.C.C.C.C.C.C.C.C.C.C.C.C.C.",
"l.c.l.l.l.l.%.r.r.;.;.r.C.C.C.C.C.l.C.C.C.C.C.C.C.C.C.l.c.l.l.l.c.l.l.l.l.l.c.c.c.c.c.C.C.C.l.c.c.c.C.c.C.C.C.C.C.C.C.C.C.C.C.C.",
"c.x.c.c.l.l.%.r.;.;.;.;.C.C.C.C.C.l.C.C.C.C.C.C.C.C.C.c.C.c.l.l.c.c.l.c.l.l.C.c.c.c.c.c.C.C.;.C.c.C.c.C.c.C.C.C.C.C.l.C.C.C.C.C.",
"c.c.c.c.c.x.l.r.l.l.c.l.C.C.C.C.C.C.C.C.C.C.C.C.C.C.C.C.C.l.;.r.l.c.l.l.l.c.c.c.C.c.C.C.C.C.C.C.C.c.c.C.c.C.C.C.C.C.C.C.C.C.C.C.",
"C.C.C.c.c.C.c.c.c.c.C.c.C.C.C.C.C.C.C.C.C.C.C.C.C.C.C.C.c.;.l.l.r.l.l.l.c.C.C.c.c.c.c.c.c.C.C.C.C.C.C.C.c.C.C.C.C.C.C.C.C.C.C.C.",
"c.c.c.c.c.c.c.c.l.;.c.C.C.C.C.C.C.C.C.C.C.C.c.C.C.C.C.C.C.l.l.l.;.l.l.c.c.C.C.c.c.c.C.C.C.C.C.C.C.C.C.C.C.C.C.C.C.C.C.C.C.C.C.C.",
"c.l.C.c.c.C.c.c.c.l.l.c.c.C.C.C.C.C.C.C.C.C.c.C.C.C.C.C.C.c.c.l.l.r.l.c.C.C.C.C.C.c.C.C.C.C.C.C.C.C.C.C.C.C.C.C.C.C.C.C.C.C.C.C.",
"c.c.C.c.c.c.c.c.c.l.c.c.C.C.C.C.C.C.C.C.C.C.C.C.C.C.C.C.c.l.c.c.l.l.;.c.C.C.C.C.C.C.C.C.C.C.C.C.C.C.C.C.C.C.C.C.C.C.C.C.C.C.C.C.",
"C.c.C.c.c.c.C.c.l.;.c.c.c.C.C.C.C.C.C.c.C.C.c.c.C.C.C.C.c.l.l.c.l.;.;.c.C.C.C.C.C.C.c.C.C.C.C.C.C.C.C.C.C.C.C.C.C.C.C.C.C.C.C.c.",
"C.C.C.C.c.c.c.c.l.c.c.c.C.C.C.C.C.C.C.C.C.C.c.c.c.C.c.c.c.l.l.r.r.l.l.l.n.N.N.n.N.N.n.C.N.n.N.N.E.C.C.C.n.C.C.C.C.C.C.C.C.c.C.c.",
"c.C.C.c.C.C.C.c.l.c.c.c.c.C.c.c.C.C.C.C.C.C.C.c.c.C.c.z.z.l.z.l.l.;.6.i.v.M.M.M.M.m.M.M.m.v.v.V.C.M.M.n.b.n.N.c.c.C.C.C.C.C.C.C.",
"C.C.C.C.C.C.C.c.l.c.c.c.c.c.c.C.C.C.C.C.c.C.c.c.c.x.n.x.z.z.n.n.l.r.i.s.j.h.G.h.G.G.h.h.G.J.J.k.h.h.J.J.d.b.n.c.c.C.C.C.C.c.c.c.",
"C.C.C.C.c.c.c.l.l.c.c.c.c.c.C.c.c.c.C.C.C.c.c.d.a.Z.Z.l e j j Z.u.i.q.T.` ` ` ` _ ^ ~.L.] _ ` ` !.` /.` T.d.c.c.c.C.c.c.C.C.c.c.",
"C.C.C.C.C.c.l.l.l.l.c.l.c.C.C.c.c.c.c.C.C.x.v.U.%X^.^.^.'.O.O.].E.7.l V - * * - & : x (.& - * * * * * - F Z.C.c.c.c.c.C.C.C.C.c.",
"C.C.C.c.c.c.%.l.l.c.l.l.c.C.c.l.c.%.c.C.C.g.Y.'.- , $ p , & y l @ q.j  .' ~.~.' E ! a ] H (.+X@X@X@X+X' K z M.x.z.l.%.c.C.C.c.C.",
"C.c.c.c.C.c.c.l.l.l.c.l.c.c.l.c.l.r.l.l.u.Y.'.= / @X@X+X) X.m # 5 <.d  ./.@X_.X.G a h ] Y *X|.|..X}.{.` T l d.y.z.l.r.l.l.l.c.c.",
"C.C.c.c.c.C.c.c.c.c.C.l.c.c.c.l.l.l.l.d.U.].= V >X.X:XoX#.M # e 3.7.d  .(.`.' W i N F.] Q {.1X4X4X3X|.~.} z v.z.z.l.c.l.c.c.l.l.",
"C.C.C.C.C.C.C.C.c.c.C.l.c.c.c.l.c.c.b.Y.'.; W. X2X.XXX@.h # t t.7.7.9  .' ) (.< S.h.a.^.Q {.4X4X4X4X2X~.} z v.x.l.c.c.c.C.c.c.r.",
"c.c.l.l.c.c.c.l.c.c.l.l.y.l.l.l.l.s.Y.'.= V  X2X.X+X@.z @ p.u.l.i.s.d  .R ].< w.7.7.w.W.! |.3X4X4X4X1X_.} d 5.y.r.l.l.c.c.l.l.r.",
"l.l.c.c.l.c.c.c.c.c.l.l.x.c.C.c.k.R.'.; / }.2X2X+X@.M 2 H.B.V.C.N.M.M | X.< z j.k.d.e.[ [ |.3X4X4X4X1X~.} 9 5.6.r.l.l.c.l.c.l.c.",
"c.c.c.l.c.c.c.c.c.c.r.r.x.c.n.g.U.'.; / >X2X.X+X#.M 2 D.B.V.{.C.N.M.N OXC k h.v.b.v.Z.[ ' |.3X4X4X3X1X!.} 9 >.-.;.r.l.l.l.r.r.l.",
"l.c.l.c.c.l.c.l.l.l.l.r.x.c.g.Y.'.= / >X2X.X+X@.B 2 a.B.V.N.C.C.C.V.G.x N h.b.x.d.u.l ^ ^ 1X4X4X4X3X:X' o.0 =.-.;.;.c.c.l.c.c.l.",
"l.l.c.c.c.r.c.c.l.l.l.;.x.d.Y.'.; /  X2X:X@X@.F.% K.m.V.C.C.C.C.N.n.M.G.J.b.b.b.m.H./ Z ~.1X4X3X3X|.!.+., 5 4.;.;.l.l.c.c.c.c.c.",
"c.l.l.c.c.l.%.l.;.l.l.r.d.Y.'.; / [.2X.X+X@.L.< G.J.V.6.C.C.C.C.C.N.N.N.x.z.b.b.h.V s W [.3X3X3X1X`.#., d <.8.l.r.l.%.c.c.C.C.C.",
"c.c.l.c.C.c.*.l.y.;.;.5.Y.'.; /  X2X.X+X#.A.8 H.B.V.N.l.C.C.C.C.C.C.C.C.x.z.b.e.m s v =X|.3X3X1X@X@.x 8 ,.5.;.l.l.l.;.c.C.C.c.c.",
"c.l.c.c.c.c.c.c.l.y.u.K.'.= / >X2X.X+X+.B 2 H.B.V.C.C.C.C.C.C.C.C.C.C.N.n.M.h.A.D a *X:X3X3X1X*X@.M f w.5.6.l.l.c.l.l.c.c.l.l.r.",
"l.l.l.c.l.c.l.c.c.i.I.'.; /  X2X.X+X#.A.% D.J.V.N.C.C.C.N.C.C.C.C.C.C.n.M.J.G.I p *X1X3X3X2X*X{ n 8 ,.u.6.;.;.r.l.l.c.C.c.l.c.l.",
"l.c.l.c.l.;.l.c.i.I.'.; / ;X2X.X+X#.M 2 H.k.V.C.C.C.C.C.C.C.C.C.C.N.N.M.J.A.( p `.1X3X3X3X=X{ s 2 0.7.6.6.;.;.6.l.c.c.l.c.c.c.l.",
"l.l.l.l.l.;.l.y.I.'.; /  X2X.X+X@.M $ a.k.V.C.C.C.C.C.C.N.C.C.C.n.N.M.k.z (.1 @X:X3X3X3X:X' W % w.8.6.6.;.6.;.r.l.C.c.C.C.c.c.c.",
"l.l.l.l.;.;.;.K.@.; / >X2X.X+X+.M $ p.j.B.N.N.N.N.N.C.C.N.N.C.V.n.M.v.N ] 1 _.|.3X3X3X:X[ OX< t 7.v.8.5.-.6.;.l.l.c.c.C.C.C.C.c.",
";.l.r.;.;.&.K.].= /  X2X.XXX#.n ; g k z S.S.S.S.S.S.S.S.S.S.S.S.Z.H.S.) ; XX:X3X4X3X1X+XOX, e q.8.u.8.1.e.<.6.r.l.z.c.c.c.C.c.c.",
"l.r.;.6.;.:.,X> ^  X2X3X:X' J X.O.O.].].].].].].(.].].].].]./.@...`.M C _ =X1X4X4X4X1X^ v k q.u.i.d.0.m (.q 5.y.r.l.l.c.c.c.c.C.",
"l.;.;.;.-.5 %XF @X2X5X5X1XB p p Z a i i i i i i i u i u i u i p > ~ b T _.1X3X4X4X3X:X! V q 7.8.7.q.h C F 0 5.6.l.l.c.c.c.c.c.l.",
";.;.;.6.;.5 $XY [.3X6X5X4X.X>X>X;X:X[.[. X X X X>X:X[.[.[.:X>XOXS ~ n } +X1X4X6X4X4X|.! V ,.4.<.,.l A > K 0 5.6.r.l.z.c.c.l.c.c.",
";.;.;.;.6.5 %XY [.5X5X6X5X2X2X2X2X2X2X2X2X2X2X2X2X2X2X2X2X2X.X@XS ( v T `.3X4X4X4X3X|.Q P ,.<.,.j I 1 R G r 5.8.;.r.l.l.c.l.l.c.",
"c.l.r.l.-.9.%XY @X2X5X3X5X2X2X2X2X2X2X2X2X2X2X2X2X2X5X5X5X5X3X-XS ( n T @X1X3X4X3X3X{.Q P q ,.d ( 1 ^.) G 0 4.6.r.r.l.l.l.l.l.l.",
"l.c.r.;.-.9.%XH { +X+X+X@X+X+X+X+X@X+X+X+X+X+X+X+X;X2X6X6X6X5X-XS ( P T `.1X1X3X3X1X{.Q ! e @ W : /.`. .U e 4.-.l.r.$.r.r.r.r.l.",
"l.;.;.;.;.,.,X#X&X&X<X<X<X<X<X<X<X<X<X<X<X<X<X<X<XOX X6X6X6X5X-XS ( L T ).:X:X|.|.{.*XU P f ! ; [ `.*X' L 7 4.-.;.;.r.;.;.;.r.r.",
"r.;.;.*.;.&.@ o O X X . X O O + X X X + + + + O x Q =X5X6X6X5X=XS ( v T X.(./.(.(.(.[ H G ( : A ' [ /.E G 7 &.*.;.l.l.;.;.;.;.r.",
"l.;.;.;.;.&.5 3 5 3 3 3 w w t w 4 4 w w p.t p.N W.} -X5X6X6X6X-XS ( x P c h c h h h b P P I L L c h h b b 5 -.;.r.r.r.;.;.;.;.;.",
"l.l.r.l.;.&.&.2.2.5 2.5 t.t.t.t.2.2.t.f.f.f.f.N !.Q @X3X6X6X5X-XD / g 9 9 6 6 6 6 6 6 2 8 % $ $ $ 6 6 6 3 :.;.;.;.l.l.l.;.l.l.r.",
"l.r.r.;.;.-.-.5.&.-.-.&.&.-.-.-.&.5.u.i.i.i.i.3.P.T @X5X6X6X5X-XD W.r 0.1.,.,.,.,.,.5 5 ,.,.,.,.5 :.5 4 &.=.;.;.l.r.;.l.l.l.l.;.",
"l.l.l.l.l.l.l.l.l.c.l.l.;.*.-.;.l.y.l.x.c.C.z.f.T.K @X3X6X6X3X[.D Q.9.8.6.6.8.8.l.z.l.z.x.z.6.8.6.5.6.5.;.c.l.l.c.l.l.c.c.c.l.c.",
"l.l.l.l.l.l.c.c.l.l.l.;.;.l.l.l.l.l.l.c.c.C.n.f.T.Y @X5X6X6X3X[.D Q.p.z.l.y.l.c.z.x.x.c.n.n.x.l.l.r.;.r.;.l.l.l.c.c.l.l.c.l.c.l.",
"l.l.c.c.c.c.c.C.c.l.l.l.;.;.l.l.l.l.c.c.c.C.c.t.T.Y +X.X3X3X2X-XS Q.0.x.l.l.c.c.l.l.x.l.c.c.c.x.c.x.l.l.;.c.l.;.l.l.l.l.l.l.l.l.",
"l.c.c.l.l.l.;.c.c.c.c.c.;.;.l.c.l.;.c.c.c.x.z.t.P.F #.XX+XR.+X#.y Q.w.x.l.l.l.c.c.c.x.c.l.l.;.c.c.c.c.l.l.c.c.c.c.c.;.l.l.;.;.l.",
"l.c.c.l.l.l.*.l.l.l.c.c.;.;.l.l.c.*.l.C.l.c.c.f.Y.#X&X&X&X<X<X&X#XT.f.c.l.l.C.C.c.C.c.c.c.l.%.c.x.l.c.l.;.c.C.C.c.c.%.l.l.;.;.l.",
"c.c.l.l.c.l.l.l.l.l.l.l.;.;.;.l.l.C.c.c.c.c.y.y.7 o O X . . . O o 2 i.C.C.C.C.C.C.c.C.C.C.c.l.c.c.c.l.l.;.C.c.c.c.c.c.c.c.l.r.c.",
"l.l.l.l.l.l.l.l.;.;.;.l.;.l.;.l.l.C.c.c.c.c.c.l.f.w q q 5 5 5 w w a.c.C.C.C.C.C.C.C.C.C.C.C.C.C.C.c.c.r.r.c.l.l.c.l.l.l.c.l.;.c.",
"l.l.l.l.l.l.;.;.;.;.;.l.;.;.;.l.c.c.C.C.C.c.c.c.b.f.s.3.t.3.3.t.u.g.c.C.C.C.C.C.C.c.C.C.c.c.C.C.C.c.l.r.;.c.c.l.c.c.l.l.l.c.l.c.",
"l.;.;.l.l.;.l.;.;.*.;.;.;.l.;.l.c.c.c.c.c.C.c.c.n.x.y.y.y.y.y.y.y.y.c.c.c.C.C.C.C.C.C.C.c.C.c.l.l.l.l.r.;.c.c.c.c.c.l.c.c.l.c.c.",
"l.l.;.l.;.;.;.;.;.;.;.;.l.;.l.;.l.l.c.c.c.c.c.c.c.l.l.y.y.y.;.l.x.l.c.C.C.C.C.C.C.C.C.C.C.c.c.l.l.r.r.;.r.C.C.c.c.c.c.l.l.c.c.c.",
"l.l.l.;.;.;.;.;.;.;.;.;.l.r.r.r.;.c.c.c.C.c.l.c.l.c.l.l.;.;.l.l.c.c.c.C.C.C.C.c.C.C.c.c.c.c.c.c.c.l.l.l.;.c.C.c.c.c.l.l.l.c.l.c.",
"c.l.;.l.;.l.;.;.;.;.;.;.;.;.r.r.l.c.c.c.c.l.c.l.l.l.l.l.y.;.;.l.c.c.c.c.c.c.C.c.c.c.l.c.c.l.l.c.c.c.l.l.r.c.c.c.c.c.c.;.l.;.c.c.",
"c.c.c.c.c.l.;.;.;.;.;.;.l.l.;.l.;.l.l.l.l.l.c.l.l.l.l.l.r.;.;.l.l.c.l.c.c.c.c.c.l.c.c.c.c.l.l.l.l.c.l.l.l.c.c.l.l.l.l.l.l.l.l.c.",
"c.c.l.l.l.;.;.;.;.;.;.;.;.;.;.;.;.l.l.c.l.c.l.l.l.l.;.l.;.;.;.l.l.l.c.C.C.c.l.c.l.l.c.c.c.l.l.l.c.c.c.l.l.c.l.c.l.l.l.c.l.l.l.c.",
"c.l.l.l.;.*.*.;.;.;.;.l.;.;.;.;.l.l.l.l.l.l.l.l.l.l.r.r.r.;.;.;.c.c.l.c.c.c.l.y.;.l.C.C.C.C.C.C.C.c.c.l.;.l.l.l.c.l.l.;.l.l.l.l.",
";.;.l.l.;.;.;.;.;.;.l.;.;.;.;.;.;.;.;.;.;.;.;.l.l.l.;.;.;.;.;.;.l.;.l.c.l.l.r.;.l.l.c.C.C.c.C.C.C.c.l.l.*.l.l.l.l.l.l.l.l.l.;.c.",
"l.;.l.c.l.;.$.;.*.;.;.*.;.;.*.;.;.$.*.;.;.;.;.;.r.;.;.  ;.*.;.;.l.l.;.l.*.%.;.l.l.l.c.C.C.c.*.c.c.c.l.l.*.;.;.;.l.l.  ;.;.l.;.l.",
";.;.l.l.c.l.l.;.;.;.;.;.*.;.*.;.;.*.;.;.*.;.*.;.;.;.;.;.;.*.;.*.;.;.;.;.;.;.l.l.c.l.c.C.C.c.l.l.l.l.l.l.*.;.*.;.;.;.;.l.;.;.;.l.",
";.;.;.l.;.;.;.;.;.*.*.;.*.;.;.;.;.;.;.;.;.;.*.;.;.;.;.;.;.;.;.;.;.;.;.;.;.;.;.l.l.c.c.C.c.l.l.;.l.l.l.l.;.;.;.*.*.;.;.;.;.;.*.;.",
";.*.;.*.;.;.*.;.*.;.;.;.*.*.;.*.;.;.*.*.;.*.;.*.;.*.;.*.*.;.*.*.;.*.*.;.*.;.*.;.*.;.l.l.l.l.l.;.l.l.l.;.*.;.*.;.;.*.*.;.;.;.*.;."
};
