/* XPM */
static char *a99baf7f39c941449ef45b0e8debbbd4RjGeIh72brdeFXu6[] = {
/* columns rows colors chars-per-pixel */
"64 64 15 1 ",
"  c gray49",
". c #808080",
"X c gray53",
"o c #898989",
"O c gray56",
"+ c gray57",
"@ c #979797",
"# c #9B9B9B",
"$ c #9F9F9F",
"% c gray63",
"& c #A4A4A4",
"* c #A9A9A9",
"= c #ACACAC",
"- c gray69",
"; c gray71",
/* pixels */
"%%&&%%$#$$$$-;;;;;;;;;;;;;;===&%&*=%%%&%***&&*&&*&*==;;;;;;;;;;;",
"&&=&$#$$#$$$-;;;;-;;-;;-;;;-====-==&%&**==-===&&&*--=;;;;;;-;;;-",
"%&%%%$$%$%$#;;;;;;-;;-;;-;;;===&&**&&**====-;-=**=-;-;;;;;-;;;;;",
"**&&&%O$$$$$-;;--&;;;;-;;;-$-&&&=**%%&==-*=-;-%-==--=;;;-;%;-;-;",
"**=*&%+%$%$%-;;-;&-;;----;-%-*&&*=&*%%-=====--$==--==;;;-;%;;-;=",
"-====*&%%&&&=;-;;-;-;;;--;;;-%$%&*%&*=-=---;--;;-=--=;-;;;-;-;;;",
"----=-=**=-&-;;;-;---;-;;;;--%%&%&&**--=**=--;;-----=;;;;;---;;-",
"=======*%%&&-;;;;;;-;-=-;-;-=&&&%&%*--;=-==;--;-;;;;-;-;;;;--;-=",
"**;==-==&&**-;;-;;;;---;---;-**&%%&*-;;;---;-;--;--;-;;--;;;----",
"=*-=====*&&=--;-;;-;-;--;;;;=***%&%=;---;---;;;;-;;;--;;---;;--;",
"-=;=*=--*%*=---;;-;-;;*==;;-=&*=%%$*;;;-;-=;;-;;;;;--;-;;;-;-;;=",
"----====&*==--;--;--=-=**--=*&&%%%%&=;;;---;;--;;;;;=;-;--;--=-=",
"-;---;;*&===-;==-;;;;--==-=**&*&%%%&=;;;;-;;---;;;-;=-;==;;;;-;-",
"-;;-;--*&*-**=----;-=-==-==*&*==&&&*;--;-----;-;-;-;=-=-=------=",
"-;-;===&&**=*=-=-=---=*==*-*&&&&*&&---;;;--;;;-;--;;---==----;=*",
"--;--**&&&**=--=**-;;=-=-=-%%%%%%&-==;;--;;;;;;;;;;;--;-=**-;;==",
";--===o&&*%&=-***X*-;=-==**.%%%%%&*=$%;;--;;;-@;;;;;=--*&*o=-;=-",
";-=-=-***&=&*=**&%&*&**=*&*$$%$$$$%--;;;;-;;;;-;;;;;-==*&&%&&&*=",
"-;==--==*==**=*&&&*=*&&&&&=%$%%%%&%&*;;;;;;;;;-;;;;;=-***&**=*&&",
"--;--;--=--&===**====*%&*&=&$%&%%&%%%=-;-;-;-;;;;;;;=-=*&**====&",
"**&&*******%%&*&&*=*=*&&*&*&&**&&&&&&&&*&&*&**&**=*&%%$%%&**=&&&",
"*&=*****==&&*===-;;;;;;;;;;;;;;;;;;;;*==-*=;-**===**#$$$%%&***&*",
"****=*===*%%*=-==-;;;;;;;;;;;;;-;;;;;-=====;=&%*=**&$$##$$*&&&%&",
"&****&**&&&%*==---;;;;;;;;;;-;;;-;;;;=-==*=;=&&&*%**$$#@#$&****&",
"*&*==&=*&*%%*=-=---;;;;;;;-;;-;;--;;;--=-;;;=&$$&%%%$##$$%&**-=*",
"*&&=*&O%$%%%*=-==%;;;;;;;;-$;;;;;;-;*&----;-=&+#$%&%$$&&%%+&=---",
"*=*==*#&$$$$=-;--&-;;;;;;-;*;-;---;;**-*==;;=%@$$$$#$#%%&&$=-===",
"*&*===*=&%%$*---=*-;;-;;-;;-;-;--;;--;=*&&--;=%&$#$&$$%&&&&--&*&",
"&&&*****=&%$%******--=;;;;;--;;;-;;;;;=%$%%**&%%#$$%##$$&*=-***&",
"**&=%%&&*&$$&&*=*&*;;;;;;;;-=;;;-;-;;;*##%&&&$$%$%%%$$#$&=====**",
"%&&&%$$&%%$$&*****=-;;;;;;;;-;-==;;-;-=$$%**&%$%&&%%#$$%&=-=--*=",
"%&&&%$$%&%$#&&&***=--;-;;--;;;---;-;;;=%%&***&%&**%$#$$&&==----=",
"$%$##@#$%%#@&*****==--;;;-;-;------;;;=&%%*&=&%&&*%%$$$$&**==-==",
"%$$$##@$%$$#&&&&*=*-;;---;-;--;-*==;--*%%$%**&%***&&$$$$%%**-*=-",
"%$#$####$$##*&$&*&*--------;;---=*=--**%*%&&%$%%%%%%$%$$%&=*-=*&",
"#$##$###$$$#&%$%&%*-=-;-=-;;;--;--=-=**%*&&&$$$#$$#$$%$$%%**=***",
"$$$$$###$$##$$$%$#$=*=-==--;;-==-=====&%&&&%%$###$#$#&$$$$*&&&&*",
"&&$$$$$#$$##$#$$##&=-;---==*--=**=-=-&%%#$&$%$$$####@%#$$%%&&*&&",
"&&$$#$ #%$$#$$%$#.$*=----**o;;-====-$+%%$$%$$% #$$$#@$##$%.%$$%&",
"&$#####$%$$@%%&&@$%&*---*&&*=---==**%$$$$#$$$$$$$$##@###$$$##$%%",
"%$##@@$$%$#@%&**##%**==*&*&&&&&***&*%$$$$##$$#######@@@#$%%$$#$$",
"%######$$##@&***#$&===-=***&*=*&&&%**$$%$$$$#$#@####@#@#$$%$###$",
"&&%%########%%&$$#%-==-=*&&=-==&&&***%#$$%$#########@@##$%%%%%$%",
"&%%$####@##@##$#@#%&&*&&&%***&&%%$%&$$#$####$####@#@@$$$%%%%%%%$",
"*&&&%&&*&*&%#$#$%&&*=-**=**%%$#%&&&%%%%%&*&*=*&%%$%$%*&&*&&&***=",
"%%&&&&=**&&$#%%%&&&*-;-===**%$$%&*&*%&&=**=*-=&*&%$$%&&&*****&*&",
"%*****=-=&*%#$%&&&*=--=*==**&%%%==**&&&*&&&*===*=*&&$&&%*&%%&%&&",
"&***&&%*==*&#$&*&%*-**&&*&%$=&%&==**&**=*=**&&#****&%*-**=$&&$$&",
"****&&+&&&*=$$%%&@*=*****&&O%%$***=-&%-;=-==*&O&***%$=--==+&&%$%",
"*=&&***&%%&%##$%*-===*&%=*%&&%%&=*=-;-;;;--;-***==*&%-==*=***&&&",
"&*%&%&&%%$$%$$%%*--====*==&&%$%&*=-;;-;---;-;--;-=*%$*&&**%&*&%*",
"%&%%&%$###$%$$%&*=---====**%%$%&*=--;--;;-;-==;;-=&%$==&**&&*&&=",
"%%$%%$$##@#$$$$%**===-==-*&&%%%%&%===;;-;;-=--=*&%%%$==**=*&***=",
"%%$%##$###@$#$%%&*=*-===**&%%%%&*&*--;-;-;---=*&&%$$%=-===**&=*=",
"**$$$##$####$$$$%*===*&*&*&&$$$%*==-;---;-=-====**&%%*--==&&&&&=",
"*&$%$$$$##$#$$$%%**==***&&&&$$$%======-**=&**&&&*=*%$=*==*&&&%*=",
"==*=&%$$$%$$$$$$$%&**&*&&&%%$$#%&=**====**&**&&&*=*&&=**&&&*&%*=",
"==&&&$##$##$$$#$$%&&&&&&&&%%$$#%%**--***%**--*&****&$=&*&&&&&&&*",
"*%&%#####$$$@$#$%&%$&%%&*&%%$###*&*-=*%%%%=-;----=*&$&&&**&%&&&&",
"%$%%$###@#%$@##$#$$#$$%$%%#$###$&%&*&%%$&%=;-*;;;=&$#$%%&&%%&&%&",
"$$%*%%.##@##@#@##.#$####%$# #@##%%$%++$$&&=;-=@-**&%@###$% $%$$%",
"$#%**%%$@###@#@#####@@##$#$##@@#$$##$$%%*&---=&%%&*&@#####$$$#$%",
"##$%%$###@#@@@#####@#@@####@@#@#######$%&**;-%%%&&*%@#@####$$###",
"@@##@#@#@##@@#@@#@##@##@#@#@#@#@#@#@@####$%&&%%%%$%$@@#@#@@##@#@"
};
